<?xml version="1.0" standalone="no"?>
<svg xmlns:xlink="http://www.w3.org/1999/xlink" id="wave" style="transform:rotate(0deg); transition: 0.3s" viewBox="0 0 1440 490" version="1.1" xmlns="http://www.w3.org/2000/svg"><defs><linearGradient id="sw-gradient-0" x1="0" x2="0" y1="1" y2="0"><stop stop-color="rgba(0, 118, 190, 1)" offset="0%"/><stop stop-color="rgba(116, 206, 171, 1)" offset="100%"/></linearGradient></defs><path style="transform:translate(0, 0px); opacity:1" fill="url(#sw-gradient-0)" d="M0,294L60,294C120,294,240,294,360,245C480,196,600,98,720,89.8C840,82,960,163,1080,196C1200,229,1320,212,1440,245C1560,278,1680,359,1800,383.8C1920,408,2040,376,2160,351.2C2280,327,2400,310,2520,261.3C2640,212,2760,131,2880,147C3000,163,3120,278,3240,310.3C3360,343,3480,294,3600,228.7C3720,163,3840,82,3960,40.8C4080,0,4200,0,4320,65.3C4440,131,4560,261,4680,294C4800,327,4920,261,5040,220.5C5160,180,5280,163,5400,147C5520,131,5640,114,5760,106.2C5880,98,6000,98,6120,98C6240,98,6360,98,6480,147C6600,196,6720,294,6840,302.2C6960,310,7080,229,7200,236.8C7320,245,7440,343,7560,392C7680,441,7800,441,7920,441C8040,441,8160,441,8280,408.3C8400,376,8520,310,8580,277.7L8640,245L8640,490L8580,490C8520,490,8400,490,8280,490C8160,490,8040,490,7920,490C7800,490,7680,490,7560,490C7440,490,7320,490,7200,490C7080,490,6960,490,6840,490C6720,490,6600,490,6480,490C6360,490,6240,490,6120,490C6000,490,5880,490,5760,490C5640,490,5520,490,5400,490C5280,490,5160,490,5040,490C4920,490,4800,490,4680,490C4560,490,4440,490,4320,490C4200,490,4080,490,3960,490C3840,490,3720,490,3600,490C3480,490,3360,490,3240,490C3120,490,3000,490,2880,490C2760,490,2640,490,2520,490C2400,490,2280,490,2160,490C2040,490,1920,490,1800,490C1680,490,1560,490,1440,490C1320,490,1200,490,1080,490C960,490,840,490,720,490C600,490,480,490,360,490C240,490,120,490,60,490L0,490Z"/><defs><linearGradient id="sw-gradient-1" x1="0" x2="0" y1="1" y2="0"><stop stop-color="rgba(116, 206, 171, 1)" offset="0%"/><stop stop-color="rgba(0, 118, 190, 1)" offset="100%"/></linearGradient></defs><path style="transform:translate(0, 50px); opacity:0.9" fill="url(#sw-gradient-1)" d="M0,392L60,392C120,392,240,392,360,400.2C480,408,600,425,720,432.8C840,441,960,441,1080,441C1200,441,1320,441,1440,383.8C1560,327,1680,212,1800,212.3C1920,212,2040,327,2160,351.2C2280,376,2400,310,2520,277.7C2640,245,2760,245,2880,253.2C3000,261,3120,278,3240,277.7C3360,278,3480,261,3600,236.8C3720,212,3840,180,3960,147C4080,114,4200,82,4320,81.7C4440,82,4560,114,4680,147C4800,180,4920,212,5040,228.7C5160,245,5280,245,5400,212.3C5520,180,5640,114,5760,114.3C5880,114,6000,180,6120,204.2C6240,229,6360,212,6480,212.3C6600,212,6720,229,6840,245C6960,261,7080,278,7200,302.2C7320,327,7440,359,7560,326.7C7680,294,7800,196,7920,163.3C8040,131,8160,163,8280,155.2C8400,147,8520,98,8580,73.5L8640,49L8640,490L8580,490C8520,490,8400,490,8280,490C8160,490,8040,490,7920,490C7800,490,7680,490,7560,490C7440,490,7320,490,7200,490C7080,490,6960,490,6840,490C6720,490,6600,490,6480,490C6360,490,6240,490,6120,490C6000,490,5880,490,5760,490C5640,490,5520,490,5400,490C5280,490,5160,490,5040,490C4920,490,4800,490,4680,490C4560,490,4440,490,4320,490C4200,490,4080,490,3960,490C3840,490,3720,490,3600,490C3480,490,3360,490,3240,490C3120,490,3000,490,2880,490C2760,490,2640,490,2520,490C2400,490,2280,490,2160,490C2040,490,1920,490,1800,490C1680,490,1560,490,1440,490C1320,490,1200,490,1080,490C960,490,840,490,720,490C600,490,480,490,360,490C240,490,120,490,60,490L0,490Z"/><defs><linearGradient id="sw-gradient-2" x1="0" x2="0" y1="1" y2="0"><stop stop-color="rgba(0, 118, 190, 1)" offset="0%"/><stop stop-color="rgba(116, 206, 171, 1)" offset="100%"/></linearGradient></defs><path style="transform:translate(0, 100px); opacity:0.8" fill="url(#sw-gradient-2)" d="M0,245L60,212.3C120,180,240,114,360,98C480,82,600,114,720,138.8C840,163,960,180,1080,163.3C1200,147,1320,98,1440,98C1560,98,1680,147,1800,179.7C1920,212,2040,229,2160,269.5C2280,310,2400,376,2520,375.7C2640,376,2760,310,2880,277.7C3000,245,3120,245,3240,245C3360,245,3480,245,3600,269.5C3720,294,3840,343,3960,318.5C4080,294,4200,196,4320,171.5C4440,147,4560,196,4680,245C4800,294,4920,343,5040,375.7C5160,408,5280,425,5400,424.7C5520,425,5640,408,5760,375.7C5880,343,6000,294,6120,245C6240,196,6360,147,6480,130.7C6600,114,6720,131,6840,147C6960,163,7080,180,7200,187.8C7320,196,7440,196,7560,196C7680,196,7800,196,7920,196C8040,196,8160,196,8280,179.7C8400,163,8520,131,8580,114.3L8640,98L8640,490L8580,490C8520,490,8400,490,8280,490C8160,490,8040,490,7920,490C7800,490,7680,490,7560,490C7440,490,7320,490,7200,490C7080,490,6960,490,6840,490C6720,490,6600,490,6480,490C6360,490,6240,490,6120,490C6000,490,5880,490,5760,490C5640,490,5520,490,5400,490C5280,490,5160,490,5040,490C4920,490,4800,490,4680,490C4560,490,4440,490,4320,490C4200,490,4080,490,3960,490C3840,490,3720,490,3600,490C3480,490,3360,490,3240,490C3120,490,3000,490,2880,490C2760,490,2640,490,2520,490C2400,490,2280,490,2160,490C2040,490,1920,490,1800,490C1680,490,1560,490,1440,490C1320,490,1200,490,1080,490C960,490,840,490,720,490C600,490,480,490,360,490C240,490,120,490,60,490L0,490Z"/></svg>